{"asset":{"generator":"3D Builder","version":"2.0"},"scene":0,"scenes":[{"nodes":[0,1,2,5,9]}],"nodes":[{"mesh":0,"matrix":[107.62123870849609,0,0,0,0,31.665515899658203,-102.85737609863281,0,0,102.85733032226562,31.665620803833008,0,4.6870223741279915E-5,139.36080932617187,176.52914428710937,1]},{"mesh":1,"matrix":[107.62129974365234,0,0,0,0,31.665536880493164,-102.85716247558594,0,0,102.85699462890625,31.665546417236328,0,8.7013278971426189E-5,139.36080932617187,176.52914428710937,1]},{"children":[3,4]},{"mesh":2,"matrix":[39.370079040527344,0,0,0,0,-4.6932791519793682E-6,-39.370075225830078,0,0,39.370075225830078,-4.6932791519793682E-6,0,-30.215805053710937,300.81051635742187,186.40066528320312,1]},{"mesh":3,"matrix":[39.370079040527344,0,0,0,0,-4.6932791519793682E-6,-39.370075225830078,0,0,39.370075225830078,-4.6932791519793682E-6,0,-30.215805053710937,300.81051635742187,186.40066528320312,1]},{"children":[6,7,8]},{"mesh":4,"matrix":[39.370079040527344,0,0,0,0,-4.6932791519793682E-6,-39.370075225830078,0,0,39.370075225830078,-4.6932791519793682E-6,0,-30.215805053710937,300.81051635742187,186.40066528320312,1]},{"mesh":5,"matrix":[39.370079040527344,0,0,0,0,-4.6932791519793682E-6,-39.370075225830078,0,0,39.370075225830078,-4.6932791519793682E-6,0,-30.215805053710937,300.81051635742187,186.40066528320312,1]},{"mesh":6,"matrix":[39.370079040527344,0,0,0,0,-4.6932791519793682E-6,-39.370075225830078,0,0,39.370075225830078,-4.6932791519793682E-6,0,-30.215805053710937,300.81051635742187,186.40066528320312,1]},{"children":[10,11,12]},{"mesh":7,"matrix":[23445.1875,0,0,0,0,-0.0027948841452598572,-23445.185546875,0,0,23445.185546875,-0.0027948841452598572,0,-1.8215941963717341E-5,386.103759765625,-32.665348052978516,1]},{"mesh":8,"matrix":[23445.1875,0,0,0,0,-0.0027948841452598572,-23445.185546875,0,0,23445.185546875,-0.0027948841452598572,0,-1.8215941963717341E-5,386.103759765625,-32.665348052978516,1]},{"mesh":9,"matrix":[23445.1875,0,0,0,0,-0.0027948841452598572,-23445.185546875,0,0,23445.185546875,-0.0027948841452598572,0,-1.8215941963717341E-5,386.103759765625,-32.665348052978516,1]}],"meshes":[{"primitives":[{"attributes":{"POSITION":0},"mode":4,"indices":1,"material":0}]},{"primitives":[{"attributes":{"POSITION":2},"mode":4,"indices":3,"material":1}]},{"primitives":[{"attributes":{"POSITION":4},"mode":4,"indices":5,"material":2}]},{"primitives":[{"attributes":{"POSITION":6},"mode":4,"indices":7,"material":2}]},{"primitives":[{"attributes":{"POSITION":8},"mode":4,"indices":9,"material":3}]},{"primitives":[{"attributes":{"POSITION":10},"mode":4,"indices":11,"material":3}]},{"primitives":[{"attributes":{"POSITION":12},"mode":4,"indices":13,"material":3}]},{"primitives":[{"attributes":{"POSITION":14,"TEXCOORD_0":15},"mode":4,"indices":16,"material":4}]},{"primitives":[{"attributes":{"POSITION":17,"TEXCOORD_0":18},"mode":4,"indices":19,"material":4}]},{"primitives":[{"attributes":{"POSITION":20,"TEXCOORD_0":21},"mode":4,"indices":22,"material":4}]}],"materials":[{"name":"Material.001","pbrMetallicRoughness":{"baseColorFactor":[0.026030741631984711,0.026030741631984711,0.026030741631984711,1],"metallicFactor":0,"roughnessFactor":0.84628564119338989},"alphaMode":"OPAQUE"},{"name":"None","pbrMetallicRoughness":{"baseColorFactor":[0.032110914587974548,0.032110914587974548,0.032110914587974548,1],"metallicFactor":0,"roughnessFactor":0.60000002384185791},"alphaMode":"OPAQUE"},{"name":"eyes","pbrMetallicRoughness":{"baseColorFactor":[0.023650404065847397,0.014856004156172276,0.0026667797937989235,1],"metallicFactor":0,"roughnessFactor":0.823941707611084},"alphaMode":"OPAQUE"},{"name":"earnose","pbrMetallicRoughness":{"baseColorFactor":[0.018848598003387451,0.018848598003387451,0.018848598003387451,1],"metallicFactor":0,"roughnessFactor":0.823941707611084},"alphaMode":"OPAQUE"},{"pbrMetallicRoughness":{"baseColorFactor":[1,1,1,1],"metallicFactor":1,"roughnessFactor":1,"baseColorTexture":{"index":0,"texCoord":0},"metallicRoughnessTexture":{"index":1,"texCoord":0}},"alphaMode":"OPAQUE"}],"accessors":[{"bufferView":0,"byteOffset":0,"count":482,"componentType":5126,"type":"VEC3","min":[-0.05506100133061409,-0.14334693551063538,-0.56584382057189941],"max":[1.9700230360031128,0.49950489401817322,0.27420192956924438]},{"bufferView":1,"byteOffset":0,"count":2880,"componentType":5125,"type":"SCALAR"},{"bufferView":2,"byteOffset":0,"count":482,"componentType":5126,"type":"VEC3","min":[-1.9700230360031128,-0.14334693551063538,-0.56584382057189941],"max":[0.05506100133061409,0.49950489401817322,0.27420192956924438]},{"bufferView":3,"byteOffset":0,"count":2880,"componentType":5125,"type":"SCALAR"},{"bufferView":4,"byteOffset":0,"count":166,"componentType":5126,"type":"VEC3","min":[-5.4706149101257324,-0.14483368396759033,-2.5237784385681152],"max":[0.25629597902297974,-0.0032284003682434559,2.4773976802825928]},{"bufferView":5,"byteOffset":0,"count":1092,"componentType":5125,"type":"SCALAR"},{"bufferView":6,"byteOffset":0,"count":234,"componentType":5126,"type":"VEC3","min":[1.2710603475570679,-0.097339905798435211,-2.322352409362793],"max":[7.0054178237915039,0.039509736001491547,2.6387760639190674]},{"bufferView":7,"byteOffset":0,"count":1650,"componentType":5125,"type":"SCALAR"},{"bufferView":8,"byteOffset":0,"count":14,"componentType":5126,"type":"VEC3","min":[0.45633530616760254,-0.0017351804999634624,0.72872912883758545],"max":[1.2865710258483887,0.0035802773199975491,1.0037879943847656]},{"bufferView":9,"byteOffset":0,"count":84,"componentType":5125,"type":"SCALAR"},{"bufferView":10,"byteOffset":0,"count":82,"componentType":5126,"type":"VEC3","min":[-5.6366510391235352,-0.040608461946249008,-0.82863563299179077],"max":[-5.4224319458007812,9.5340662002563477,0.36196267604827881]},{"bufferView":11,"byteOffset":0,"count":480,"componentType":5125,"type":"SCALAR"},{"bufferView":12,"byteOffset":0,"count":82,"componentType":5126,"type":"VEC3","min":[6.9502863883972168,0.039251476526260376,-0.52001893520355225],"max":[7.1716141700744629,9.61398983001709,0.67013108730316162]},{"bufferView":13,"byteOffset":0,"count":480,"componentType":5125,"type":"SCALAR"},{"bufferView":14,"byteOffset":0,"count":100,"componentType":5126,"type":"VEC3","min":[-0.015530590899288654,-0.0011539827100932598,0.009542146697640419],"max":[-0.014617542736232281,0.0016422249609604478,0.012338356114923954]},{"bufferView":15,"byteOffset":0,"count":100,"componentType":5126,"type":"VEC2"},{"bufferView":16,"byteOffset":0,"count":456,"componentType":5125,"type":"SCALAR"},{"bufferView":17,"byteOffset":0,"count":97,"componentType":5126,"type":"VEC3","min":[0.014599990099668503,-0.0011539827100932598,0.009542146697640419],"max":[0.015513036400079727,0.0016422249609604478,0.012338356114923954]},{"bufferView":18,"byteOffset":0,"count":97,"componentType":5126,"type":"VEC2"},{"bufferView":19,"byteOffset":0,"count":456,"componentType":5125,"type":"SCALAR"},{"bufferView":20,"byteOffset":0,"count":4311,"componentType":5126,"type":"VEC3","min":[-0.020171917974948883,-0.021849736571311951,0.0072975712828338146],"max":[0.02015436626970768,0.02568582259118557,0.0267188623547554]},{"bufferView":21,"byteOffset":0,"count":4311,"componentType":5126,"type":"VEC2"},{"bufferView":22,"byteOffset":0,"count":14706,"componentType":5125,"type":"SCALAR"}],"textures":[{"source":0,"sampler":0},{"source":1,"sampler":0}],"images":[{"uri":"None_baseColor.png"},{"uri":"None_metallicRoughness_10852638490067281019.png"}],"samplers":[{"magFilter":9729,"wrapS":10497,"wrapT":10497}],"bufferViews":[{"buffer":0,"byteOffset":0,"byteLength":5784,"byteStride":12,"target":34962},{"buffer":0,"byteOffset":5784,"byteLength":11520,"target":34963},{"buffer":0,"byteOffset":17304,"byteLength":5784,"byteStride":12,"target":34962},{"buffer":0,"byteOffset":23088,"byteLength":11520,"target":34963},{"buffer":0,"byteOffset":34608,"byteLength":1992,"byteStride":12,"target":34962},{"buffer":0,"byteOffset":36600,"byteLength":4368,"target":34963},{"buffer":0,"byteOffset":40968,"byteLength":2808,"byteStride":12,"target":34962},{"buffer":0,"byteOffset":43776,"byteLength":6600,"target":34963},{"buffer":0,"byteOffset":50376,"byteLength":168,"byteStride":12,"target":34962},{"buffer":0,"byteOffset":50544,"byteLength":336,"target":34963},{"buffer":0,"byteOffset":50880,"byteLength":984,"byteStride":12,"target":34962},{"buffer":0,"byteOffset":51864,"byteLength":1920,"target":34963},{"buffer":0,"byteOffset":53784,"byteLength":984,"byteStride":12,"target":34962},{"buffer":0,"byteOffset":54768,"byteLength":1920,"target":34963},{"buffer":0,"byteOffset":56688,"byteLength":1200,"byteStride":12,"target":34962},{"buffer":0,"byteOffset":57888,"byteLength":800,"byteStride":8,"target":34962},{"buffer":0,"byteOffset":58688,"byteLength":1824,"target":34963},{"buffer":0,"byteOffset":60512,"byteLength":1164,"byteStride":12,"target":34962},{"buffer":0,"byteOffset":61676,"byteLength":776,"byteStride":8,"target":34962},{"buffer":0,"byteOffset":62452,"byteLength":1824,"target":34963},{"buffer":0,"byteOffset":64276,"byteLength":51732,"byteStride":12,"target":34962},{"buffer":0,"byteOffset":116008,"byteLength":34488,"byteStride":8,"target":34962},{"buffer":0,"byteOffset":150496,"byteLength":58824,"target":34963}],"buffers":[{"byteLength":209320,"uri":"scene.bin"}]}